<?xml version="1.0" encoding="utf-8"?>
<!-- Generator: Adobe Illustrator 19.0.0, SVG Export Plug-In . SVG Version: 6.00 Build 0)  -->
<svg version="1.1" id="Layer_1" xmlns="http://www.w3.org/2000/svg" xmlns:xlink="http://www.w3.org/1999/xlink" x="0px" y="0px"
	 viewBox="-250 358.2 90 51.9" style="enable-background:new -250 358.2 90 51.9;" xml:space="preserve">
<polygon points="-206.5,364.6 -213,383.9 -212.5,403.3 -213.9,409.1 -210.9,403.1 -210.2,384.1 -201.7,360.5 "/>
<polygon points="-210.6,362 -211.5,374.3 -223.5,381.7 -224.3,398.5 -230.1,404.7 -226.2,398.5 -226.1,381.3 -215.8,372.1 
	-212.8,364.1 "/>
<polygon points="-186.3,360.6 -181.4,380.4 -179.3,402.1 -173.6,410.1 -177.5,401.4 -178.3,380.2 -180.9,367.4 -182.2,361.8 "/>
<polygon points="-210,361.9 -210.9,374.4 -210.4,374.5 -207,364.3 -202.7,360.7 "/>
<polygon points="-170.4,370.6 -180.2,367.8 -177.7,380.2 -177.3,392 -167.2,393.4 -160,384.1 "/>
<polygon points="-181,390.6 -182,380.5 -186.8,360.5 -194.2,363.2 -201.1,360.7 -206.2,374.8 -193.5,375.6 -186.5,371.3 -188,381.5 
	"/>
<polygon points="-215.9,370.7 -213.2,363.8 -211.5,362.1 -216,362.9 -222.9,357.9 -228.8,361.1 -232.2,358.2 -234.9,358.8 
	-250,372.7 -234.4,359.9 -233.4,359.4 -231.1,361.9 -234.1,364.2 -235.6,371.1 -233.2,373.9 -216,368 "/>
</svg>
